<mxfile host="app.diagrams.net" modified="2024-06-25T08:01:04.686Z" agent="Mozilla/5.0 (Windows NT 10.0; Win64; x64) AppleWebKit/537.36 (KHTML, like Gecko) Chrome/126.0.0.0 Safari/537.36 Edg/126.0.0.0" etag="9eGYdI-HWeF3TJBlfrzA" version="24.6.2" type="device">
  <diagram name="Page-1" id="e7e014a7-5840-1c2e-5031-d8a46d1fe8dd">
    <mxGraphModel dx="1475" dy="1414" grid="1" gridSize="10" guides="1" tooltips="1" connect="1" arrows="1" fold="1" page="1" pageScale="1" pageWidth="1169" pageHeight="826" background="none" math="0" shadow="0">
      <root>
        <mxCell id="0" />
        <mxCell id="1" parent="0" />
        <mxCell id="CurbBDRdi6OEUp6jBE6m-41" value="&lt;b&gt;Front-end&lt;/b&gt;&lt;div&gt;&lt;b&gt;(Login Page to calculate&lt;/b&gt;&lt;/div&gt;&lt;div&gt;&lt;b&gt;Reward point)&lt;/b&gt;&lt;/div&gt;" style="html=1;dashed=0;whiteSpace=wrap;fillColor=#fff2cc;strokeColor=#d6b656;" parent="1" vertex="1">
          <mxGeometry x="40" y="-480" width="200" height="120" as="geometry" />
        </mxCell>
        <mxCell id="CurbBDRdi6OEUp6jBE6m-42" value="&lt;b&gt;Validator&lt;/b&gt;" style="html=1;points=[[0,0,0,0,5],[0,1,0,0,-5],[1,0,0,0,5],[1,1,0,0,-5]];perimeter=orthogonalPerimeter;outlineConnect=0;targetShapes=umlLifeline;portConstraint=eastwest;newEdgeStyle={&quot;curved&quot;:0,&quot;rounded&quot;:0};whiteSpace=wrap;" parent="1" vertex="1">
          <mxGeometry x="360" y="-480" width="50" height="120" as="geometry" />
        </mxCell>
        <mxCell id="CurbBDRdi6OEUp6jBE6m-44" value="Controller" style="html=1;dashed=0;whiteSpace=wrap;fillColor=#dae8fc;strokeColor=#6c8ebf;" parent="1" vertex="1">
          <mxGeometry x="520" y="-480" width="200" height="120" as="geometry" />
        </mxCell>
        <mxCell id="CurbBDRdi6OEUp6jBE6m-45" value="&lt;b&gt;Reward Service&lt;/b&gt;&lt;div&gt;&lt;b&gt;(Business Logic)&lt;/b&gt;&lt;/div&gt;" style="html=1;dashed=0;whiteSpace=wrap;fillColor=#dae8fc;strokeColor=#6c8ebf;" parent="1" vertex="1">
          <mxGeometry x="520" y="-280" width="200" height="120" as="geometry" />
        </mxCell>
        <mxCell id="CurbBDRdi6OEUp6jBE6m-46" value="&lt;b&gt;Rest Api Call&lt;/b&gt;" style="endArrow=classic;html=1;rounded=0;exitX=1.027;exitY=0.401;exitDx=0;exitDy=0;exitPerimeter=0;" parent="1" source="CurbBDRdi6OEUp6jBE6m-41" target="CurbBDRdi6OEUp6jBE6m-42" edge="1">
          <mxGeometry width="50" height="50" relative="1" as="geometry">
            <mxPoint x="300" y="-380" as="sourcePoint" />
            <mxPoint x="350" y="-430" as="targetPoint" />
            <Array as="points">
              <mxPoint x="360" y="-432" />
            </Array>
          </mxGeometry>
        </mxCell>
        <mxCell id="CurbBDRdi6OEUp6jBE6m-48" value="" style="endArrow=classic;html=1;rounded=0;exitX=1.027;exitY=0.401;exitDx=0;exitDy=0;exitPerimeter=0;" parent="1" edge="1">
          <mxGeometry width="50" height="50" relative="1" as="geometry">
            <mxPoint x="410" y="-430" as="sourcePoint" />
            <mxPoint x="525" y="-430" as="targetPoint" />
            <Array as="points">
              <mxPoint x="525" y="-430" />
            </Array>
          </mxGeometry>
        </mxCell>
        <mxCell id="CurbBDRdi6OEUp6jBE6m-68" value="Rest Api call" style="edgeLabel;html=1;align=center;verticalAlign=middle;resizable=0;points=[];" parent="CurbBDRdi6OEUp6jBE6m-48" vertex="1" connectable="0">
          <mxGeometry x="0.115" y="-1" relative="1" as="geometry">
            <mxPoint as="offset" />
          </mxGeometry>
        </mxCell>
        <mxCell id="CurbBDRdi6OEUp6jBE6m-53" value="" style="endArrow=classic;html=1;rounded=0;entryX=0.405;entryY=-0.025;entryDx=0;entryDy=0;entryPerimeter=0;" parent="1" target="CurbBDRdi6OEUp6jBE6m-45" edge="1">
          <mxGeometry width="50" height="50" relative="1" as="geometry">
            <mxPoint x="600" y="-350" as="sourcePoint" />
            <mxPoint x="600" y="-290" as="targetPoint" />
          </mxGeometry>
        </mxCell>
        <mxCell id="CurbBDRdi6OEUp6jBE6m-69" value="Request" style="edgeLabel;html=1;align=center;verticalAlign=middle;resizable=0;points=[];" parent="CurbBDRdi6OEUp6jBE6m-53" vertex="1" connectable="0">
          <mxGeometry x="0.0169" y="4" relative="1" as="geometry">
            <mxPoint as="offset" />
          </mxGeometry>
        </mxCell>
        <mxCell id="CurbBDRdi6OEUp6jBE6m-54" value="MySql&lt;div&gt;Database&lt;/div&gt;" style="strokeWidth=2;html=1;shape=mxgraph.flowchart.database;whiteSpace=wrap;" parent="1" vertex="1">
          <mxGeometry x="585" y="-80" width="60" height="60" as="geometry" />
        </mxCell>
        <mxCell id="CurbBDRdi6OEUp6jBE6m-55" value="" style="endArrow=classic;html=1;rounded=0;entryX=0.405;entryY=-0.025;entryDx=0;entryDy=0;entryPerimeter=0;" parent="1" edge="1">
          <mxGeometry width="50" height="50" relative="1" as="geometry">
            <mxPoint x="610" y="-160" as="sourcePoint" />
            <mxPoint x="611" y="-93" as="targetPoint" />
          </mxGeometry>
        </mxCell>
        <mxCell id="CurbBDRdi6OEUp6jBE6m-56" value="&lt;b&gt;Front-end&lt;/b&gt;&lt;div&gt;&lt;b&gt;(&lt;/b&gt;&lt;/div&gt;&lt;div&gt;&lt;b&gt;Store Customer transactions)&lt;/b&gt;&lt;/div&gt;" style="html=1;dashed=0;whiteSpace=wrap;fillColor=#fff2cc;strokeColor=#d6b656;" parent="1" vertex="1">
          <mxGeometry x="40" y="-140" width="200" height="120" as="geometry" />
        </mxCell>
        <mxCell id="CurbBDRdi6OEUp6jBE6m-57" value="" style="endArrow=classic;html=1;rounded=0;" parent="1" edge="1">
          <mxGeometry width="50" height="50" relative="1" as="geometry">
            <mxPoint x="240" y="-70.5" as="sourcePoint" />
            <mxPoint x="360" y="-70.5" as="targetPoint" />
            <Array as="points">
              <mxPoint x="360" y="-70.5" />
            </Array>
          </mxGeometry>
        </mxCell>
        <mxCell id="CurbBDRdi6OEUp6jBE6m-72" value="Rest Api call" style="edgeLabel;html=1;align=center;verticalAlign=middle;resizable=0;points=[];" parent="CurbBDRdi6OEUp6jBE6m-57" vertex="1" connectable="0">
          <mxGeometry x="-0.2481" y="2" relative="1" as="geometry">
            <mxPoint as="offset" />
          </mxGeometry>
        </mxCell>
        <mxCell id="CurbBDRdi6OEUp6jBE6m-58" value="&lt;b&gt;Validator&lt;/b&gt;" style="html=1;points=[[0,0,0,0,5],[0,1,0,0,-5],[1,0,0,0,5],[1,1,0,0,-5]];perimeter=orthogonalPerimeter;outlineConnect=0;targetShapes=umlLifeline;portConstraint=eastwest;newEdgeStyle={&quot;curved&quot;:0,&quot;rounded&quot;:0};whiteSpace=wrap;" parent="1" vertex="1">
          <mxGeometry x="360" y="-130" width="50" height="120" as="geometry" />
        </mxCell>
        <mxCell id="CurbBDRdi6OEUp6jBE6m-60" value="" style="endArrow=classic;html=1;rounded=0;" parent="1" edge="1">
          <mxGeometry width="50" height="50" relative="1" as="geometry">
            <mxPoint x="420" y="-70.5" as="sourcePoint" />
            <mxPoint x="540" y="-70.5" as="targetPoint" />
            <Array as="points">
              <mxPoint x="540" y="-70.5" />
            </Array>
          </mxGeometry>
        </mxCell>
        <mxCell id="CurbBDRdi6OEUp6jBE6m-73" value="query" style="edgeLabel;html=1;align=center;verticalAlign=middle;resizable=0;points=[];" parent="CurbBDRdi6OEUp6jBE6m-60" vertex="1" connectable="0">
          <mxGeometry x="-0.0648" y="-8" relative="1" as="geometry">
            <mxPoint as="offset" />
          </mxGeometry>
        </mxCell>
        <mxCell id="CurbBDRdi6OEUp6jBE6m-61" value="Global exception handler" style="rounded=1;whiteSpace=wrap;html=1;fillColor=#f8cecc;strokeColor=#b85450;" parent="1" vertex="1">
          <mxGeometry x="140" y="-280" width="230" height="110" as="geometry" />
        </mxCell>
        <mxCell id="CurbBDRdi6OEUp6jBE6m-62" value="" style="endArrow=classic;html=1;rounded=0;exitX=0;exitY=0.5;exitDx=0;exitDy=0;entryX=1;entryY=0.545;entryDx=0;entryDy=0;entryPerimeter=0;" parent="1" source="CurbBDRdi6OEUp6jBE6m-45" target="CurbBDRdi6OEUp6jBE6m-61" edge="1">
          <mxGeometry width="50" height="50" relative="1" as="geometry">
            <mxPoint x="500" y="-210" as="sourcePoint" />
            <mxPoint x="480" y="-220" as="targetPoint" />
          </mxGeometry>
        </mxCell>
        <mxCell id="CurbBDRdi6OEUp6jBE6m-71" value="Response" style="edgeLabel;html=1;align=center;verticalAlign=middle;resizable=0;points=[];" parent="CurbBDRdi6OEUp6jBE6m-62" vertex="1" connectable="0">
          <mxGeometry x="0.1318" y="1" relative="1" as="geometry">
            <mxPoint as="offset" />
          </mxGeometry>
        </mxCell>
        <mxCell id="CurbBDRdi6OEUp6jBE6m-65" value="Resource Not found&lt;div&gt;Customer ID not found&lt;/div&gt;" style="shape=callout;whiteSpace=wrap;html=1;perimeter=calloutPerimeter;" parent="1" vertex="1">
          <mxGeometry x="390" y="-310" width="120" height="80" as="geometry" />
        </mxCell>
        <mxCell id="CurbBDRdi6OEUp6jBE6m-70" value="&amp;nbsp; &amp;nbsp; &amp;nbsp; Query" style="text;html=1;align=center;verticalAlign=middle;resizable=0;points=[];autosize=1;strokeColor=none;fillColor=none;" parent="1" vertex="1">
          <mxGeometry x="580" y="-142" width="80" height="30" as="geometry" />
        </mxCell>
        <mxCell id="zm0kgM9KP-2whMToGbi6-1" value="" style="rounded=1;whiteSpace=wrap;html=1;fillColor=#fff2cc;strokeColor=#d6b656;" vertex="1" parent="1">
          <mxGeometry x="780" y="-480" width="230" height="460" as="geometry" />
        </mxCell>
        <mxCell id="zm0kgM9KP-2whMToGbi6-6" value="&lt;b&gt;communication&lt;/b&gt;" style="rounded=1;whiteSpace=wrap;html=1;absoluteArcSize=1;arcSize=14;strokeWidth=2;" vertex="1" parent="1">
          <mxGeometry x="810" y="-190" width="180" height="70" as="geometry" />
        </mxCell>
        <mxCell id="zm0kgM9KP-2whMToGbi6-7" value="&lt;b&gt;Security&lt;/b&gt;" style="rounded=1;whiteSpace=wrap;html=1;absoluteArcSize=1;arcSize=14;strokeWidth=2;" vertex="1" parent="1">
          <mxGeometry x="810" y="-370" width="180" height="70" as="geometry" />
        </mxCell>
        <mxCell id="zm0kgM9KP-2whMToGbi6-8" value="&lt;b&gt;Operational management&lt;/b&gt;" style="rounded=1;whiteSpace=wrap;html=1;absoluteArcSize=1;arcSize=14;strokeWidth=2;" vertex="1" parent="1">
          <mxGeometry x="810" y="-280" width="180" height="70" as="geometry" />
        </mxCell>
        <mxCell id="zm0kgM9KP-2whMToGbi6-11" value="Cross Cutting" style="text;strokeColor=none;fillColor=none;html=1;fontSize=24;fontStyle=1;verticalAlign=middle;align=center;" vertex="1" parent="1">
          <mxGeometry x="840" y="-420" width="110" height="40" as="geometry" />
        </mxCell>
        <mxCell id="zm0kgM9KP-2whMToGbi6-12" value="&lt;span style=&quot;font-weight: normal;&quot;&gt;&lt;font color=&quot;#df1111&quot;&gt;Aspects&lt;/font&gt;&lt;/span&gt;" style="text;strokeColor=none;fillColor=none;html=1;fontSize=24;fontStyle=1;verticalAlign=middle;align=center;" vertex="1" parent="1">
          <mxGeometry x="830" y="-470" width="110" height="40" as="geometry" />
        </mxCell>
      </root>
    </mxGraphModel>
  </diagram>
</mxfile>
